<svg xmlns="http://www.w3.org/2000/svg" viewBox="0 0 800 808" role="img" aria-labelledby="wheel-title wheel-desc">
  <title id="wheel-title">The Wheel of Life</title>
  <desc id="wheel-desc">Eight life categories arranged in a wheel with four concentric scoring rings each.</desc>
  <text x="400" y="72" text-anchor="middle" fill="#E53935" font-family="Arial, Helvetica, sans-serif" font-size="42" font-weight="700">The Wheel of Life</text>
  <g>
    <path d="M 364.79 383.00 A 92 92 0 0 1 435.21 383.00 L 406.12 453.22 A 16 16  0 0 0 393.88 453.22 Z" fill="rgb(253, 235, 206)" />
    <path d="M 335.71 312.79 A 168 168 0 0 1 464.29 312.79 L 435.21 383.00 A 92 92  0 0 0 364.79 383.00 Z" fill="rgb(251, 221, 172)" />
    <path d="M 306.63 242.57 A 244 244 0 0 1 493.37 242.57 L 464.29 312.79 A 168 168  0 0 0 335.71 312.79 Z" fill="rgb(249, 198, 115)" />
    <path d="M 277.54 172.36 A 320 320 0 0 1 522.46 172.36 L 493.37 242.57 A 244 244  0 0 0 306.63 242.57 Z" fill="rgb(245, 166, 35)" />
    <path d="M 435.21 383.00 A 92 92 0 0 1 485.00 432.79 L 414.78 461.88 A 16 16  0 0 0 406.12 453.22 Z" fill="rgb(250, 219, 215)" />
    <path d="M 464.29 312.79 A 168 168 0 0 1 555.21 403.71 L 485.00 432.79 A 92 92  0 0 0 435.21 383.00 Z" fill="rgb(246, 194, 187)" />
    <path d="M 493.37 242.57 A 244 244 0 0 1 625.43 374.63 L 555.21 403.71 A 168 168  0 0 0 464.29 312.79 Z" fill="rgb(240, 152, 141)" />
    <path d="M 522.46 172.36 A 320 320 0 0 1 695.64 345.54 L 625.43 374.63 A 244 244  0 0 0 493.37 242.57 Z" fill="rgb(232, 93, 76)" />
    <path d="M 485.00 432.79 A 92 92 0 0 1 485.00 503.21 L 414.78 474.12 A 16 16  0 0 0 414.78 461.88 Z" fill="rgb(247, 214, 236)" />
    <path d="M 555.21 403.71 A 168 168 0 0 1 555.21 532.29 L 485.00 503.21 A 92 92  0 0 0 485.00 432.79 Z" fill="rgb(241, 185, 222)" />
    <path d="M 625.43 374.63 A 244 244 0 0 1 625.43 561.37 L 555.21 532.29 A 168 168  0 0 0 555.21 403.71 Z" fill="rgb(231, 137, 200)" />
    <path d="M 695.64 345.54 A 320 320 0 0 1 695.64 590.46 L 625.43 561.37 A 244 244  0 0 0 625.43 374.63 Z" fill="rgb(217, 70, 168)" />
    <path d="M 485.00 503.21 A 92 92 0 0 1 435.21 553.00 L 406.12 482.78 A 16 16  0 0 0 414.78 474.12 Z" fill="rgb(230, 214, 237)" />
    <path d="M 555.21 532.29 A 168 168 0 0 1 464.29 623.21 L 435.21 553.00 A 92 92  0 0 0 485.00 503.21 Z" fill="rgb(212, 184, 224)" />
    <path d="M 625.43 561.37 A 244 244 0 0 1 493.37 693.43 L 464.29 623.21 A 168 168  0 0 0 555.21 532.29 Z" fill="rgb(183, 136, 203)" />
    <path d="M 695.64 590.46 A 320 320 0 0 1 522.46 763.64 L 493.37 693.43 A 244 244  0 0 0 625.43 561.37 Z" fill="rgb(142, 68, 173)" />
    <path d="M 435.21 553.00 A 92 92 0 0 1 364.79 553.00 L 393.88 482.78 A 16 16  0 0 0 406.12 482.78 Z" fill="rgb(212, 219, 247)" />
    <path d="M 464.29 623.21 A 168 168 0 0 1 335.71 623.21 L 364.79 553.00 A 92 92  0 0 0 435.21 553.00 Z" fill="rgb(181, 193, 241)" />
    <path d="M 493.37 693.43 A 244 244 0 0 1 306.63 693.43 L 335.71 623.21 A 168 168  0 0 0 464.29 623.21 Z" fill="rgb(130, 151, 232)" />
    <path d="M 522.46 763.64 A 320 320 0 0 1 277.54 763.64 L 306.63 693.43 A 244 244  0 0 0 493.37 693.43 Z" fill="rgb(59, 91, 219)" />
    <path d="M 364.79 553.00 A 92 92 0 0 1 315.00 503.21 L 385.22 474.12 A 16 16  0 0 0 393.88 482.78 Z" fill="rgb(211, 240, 253)" />
    <path d="M 335.71 623.21 A 168 168 0 0 1 244.79 532.29 L 315.00 503.21 A 92 92  0 0 0 364.79 553.00 Z" fill="rgb(180, 230, 252)" />
    <path d="M 306.63 693.43 A 244 244 0 0 1 174.57 561.37 L 244.79 532.29 A 168 168  0 0 0 335.71 623.21 Z" fill="rgb(128, 213, 251)" />
    <path d="M 277.54 763.64 A 320 320 0 0 1 104.36 590.46 L 174.57 561.37 A 244 244  0 0 0 306.63 693.43 Z" fill="rgb(56, 189, 248)" />
    <path d="M 315.00 503.21 A 92 92 0 0 1 315.00 432.79 L 385.22 461.88 A 16 16  0 0 0 385.22 474.12 Z" fill="rgb(203, 239, 235)" />
    <path d="M 244.79 532.29 A 168 168 0 0 1 244.79 403.71 L 315.00 432.79 A 92 92  0 0 0 315.00 503.21 Z" fill="rgb(166, 228, 221)" />
    <path d="M 174.57 561.37 A 244 244 0 0 1 174.57 374.63 L 244.79 403.71 A 168 168  0 0 0 244.79 532.29 Z" fill="rgb(105, 210, 198)" />
    <path d="M 104.36 590.46 A 320 320 0 0 1 104.36 345.54 L 174.57 374.63 A 244 244  0 0 0 174.57 561.37 Z" fill="rgb(20, 184, 166)" />
    <path d="M 315.00 432.79 A 92 92 0 0 1 364.79 383.00 L 393.88 453.22 A 16 16  0 0 0 385.22 461.88 Z" fill="rgb(228, 244, 203)" />
    <path d="M 244.79 403.71 A 168 168 0 0 1 335.71 312.79 L 364.79 383.00 A 92 92  0 0 0 315.00 432.79 Z" fill="rgb(209, 236, 167)" />
    <path d="M 174.57 374.63 A 244 244 0 0 1 306.63 242.57 L 335.71 312.79 A 168 168  0 0 0 244.79 403.71 Z" fill="rgb(177, 223, 107)" />
    <path d="M 104.36 345.54 A 320 320 0 0 1 277.54 172.36 L 306.63 242.57 A 244 244  0 0 0 174.57 374.63 Z" fill="rgb(132, 204, 22)" />
    <circle cx="400" cy="468" r="92.00" fill="none" stroke="white" stroke-opacity="0.35" stroke-width="1" />
    <circle cx="400" cy="468" r="168.00" fill="none" stroke="white" stroke-opacity="0.35" stroke-width="1" />
    <circle cx="400" cy="468" r="244.00" fill="none" stroke="white" stroke-opacity="0.35" stroke-width="1" />
    <line x1="400" y1="468" x2="277.54" y2="172.36" stroke="white" stroke-width="2.5" />
    <line x1="400" y1="468" x2="522.46" y2="172.36" stroke="white" stroke-width="2.5" />
    <line x1="400" y1="468" x2="695.64" y2="345.54" stroke="white" stroke-width="2.5" />
    <line x1="400" y1="468" x2="695.64" y2="590.46" stroke="white" stroke-width="2.5" />
    <line x1="400" y1="468" x2="522.46" y2="763.64" stroke="white" stroke-width="2.5" />
    <line x1="400" y1="468" x2="277.54" y2="763.64" stroke="white" stroke-width="2.5" />
    <line x1="400" y1="468" x2="104.36" y2="590.46" stroke="white" stroke-width="2.5" />
    <line x1="400" y1="468" x2="104.36" y2="345.54" stroke="white" stroke-width="2.5" />
    <circle cx="400" cy="468" r="16" fill="white" />
    <text x="400.00" y="198.20" text-anchor="middle" dominant-baseline="middle" fill="white" font-family="Arial, Helvetica, sans-serif" font-size="15" font-weight="600"><tspan x="400.00" dy="0">Career</tspan></text>
    <text x="597.61" y="274.39" text-anchor="middle" dominant-baseline="middle" fill="white" font-family="Arial, Helvetica, sans-serif" font-size="15" font-weight="600"><tspan x="597.61" dy="0">Finances</tspan></text>
    <text x="685.80" y="468.00" text-anchor="middle" dominant-baseline="middle" fill="white" font-family="Arial, Helvetica, sans-serif" font-size="15" font-weight="600"><tspan x="685.80" dy="0">Health</tspan></text>
    <text x="602.09" y="663.09" text-anchor="middle" dominant-baseline="middle" fill="white" font-family="Arial, Helvetica, sans-serif" font-size="13" font-weight="600"><tspan x="602.09" dy="0">Family &amp;</tspan><tspan x="602.09" dy="14">Friends</tspan></text>
    <text x="400.00" y="746.80" text-anchor="middle" dominant-baseline="middle" fill="white" font-family="Arial, Helvetica, sans-serif" font-size="13" font-weight="600"><tspan x="400.00" dy="0">Love &amp;</tspan><tspan x="400.00" dy="14">Romance</tspan></text>
    <text x="197.91" y="663.09" text-anchor="middle" dominant-baseline="middle" fill="white" font-family="Arial, Helvetica, sans-serif" font-size="13" font-weight="600"><tspan x="197.91" dy="0">Personal</tspan><tspan x="197.91" dy="14">Growth</tspan></text>
    <text x="119.20" y="461.00" text-anchor="middle" dominant-baseline="middle" fill="white" font-family="Arial, Helvetica, sans-serif" font-size="13" font-weight="600"><tspan x="119.20" dy="0">Fun &amp;</tspan><tspan x="119.20" dy="14">Recreation</tspan></text>
    <text x="196.39" y="267.39" text-anchor="middle" dominant-baseline="middle" fill="white" font-family="Arial, Helvetica, sans-serif" font-size="13" font-weight="600"><tspan x="196.39" dy="0">Physical</tspan><tspan x="196.39" dy="14">Environment</tspan></text>
  </g>
</svg>
